<?xml version="1.0" encoding="UTF-8"?>
<!DOCTYPE svg PUBLIC "-//W3C//DTD SVG 1.1//EN" "http://www.w3.org/Graphics/SVG/1.1/DTD/svg11.dtd">
<svg xmlns="http://www.w3.org/2000/svg" version="1.1" width="720px" height="720px" style="shape-rendering:geometricPrecision; text-rendering:geometricPrecision; image-rendering:optimizeQuality; fill-rule:evenodd; clip-rule:evenodd" xmlns:xlink="http://www.w3.org/1999/xlink">
<g><path style="opacity:1" fill="#fefefe" d="M -0.5,-0.5 C 239.5,-0.5 479.5,-0.5 719.5,-0.5C 719.5,239.5 719.5,479.5 719.5,719.5C 479.5,719.5 239.5,719.5 -0.5,719.5C -0.5,479.5 -0.5,239.5 -0.5,-0.5 Z"/></g>
<g><path style="opacity:1" fill="#4a8535" d="M 243.5,218.5 C 248.666,232.49 256.166,245.157 266,256.5C 291.839,283.347 321.339,305.18 354.5,322C 329.921,332.033 308.754,346.866 291,366.5C 269.092,395.992 264.259,428.159 276.5,463C 249.291,449.107 230.457,427.607 220,398.5C 212.192,374.421 209.525,349.755 212,324.5C 216.612,287.377 227.112,252.044 243.5,218.5 Z"/></g>
<g><path style="opacity:1" fill="#83ca2d" d="M 474.5,223.5 C 498.888,269.06 509.721,317.726 507,369.5C 499.908,422.922 471.408,459.756 421.5,480C 385.783,493.757 348.783,500.423 310.5,500C 326.685,465.151 348.352,434.151 375.5,407C 387.184,396.151 400.517,387.818 415.5,382C 403.018,382.826 391.351,386.493 380.5,393C 358.449,407.052 339.615,424.552 324,445.5C 313.662,460.167 304.329,475.5 296,491.5C 280.366,463.369 276.366,433.702 284,402.5C 292.185,379.65 306.352,361.484 326.5,348C 347.339,336.08 368.339,324.413 389.5,313C 416.971,296.873 440.804,276.373 461,251.5C 467.376,243.081 471.876,233.747 474.5,223.5 Z"/></g>
</svg>
