<?xml version="1.0" encoding="UTF-8"?>
<!DOCTYPE svg PUBLIC "-//W3C//DTD SVG 1.1//EN" "http://www.w3.org/Graphics/SVG/1.1/DTD/svg11.dtd">
<svg xmlns="http://www.w3.org/2000/svg" version="1.1" width="100px" height="100px" style="shape-rendering:geometricPrecision; text-rendering:geometricPrecision; image-rendering:optimizeQuality; fill-rule:evenodd; clip-rule:evenodd" xmlns:xlink="http://www.w3.org/1999/xlink">
<g><path style="opacity:1" fill="#3ac600" d="M 47.5,7.5 C 48.8333,7.5 50.1667,7.5 51.5,7.5C 51.5,10.5 51.5,13.5 51.5,16.5C 50.1667,16.5 48.8333,16.5 47.5,16.5C 47.5,13.5 47.5,10.5 47.5,7.5 Z"/></g>
<g><path style="opacity:1" fill="#28c800" d="M 16.5,15.5 C 20.2736,16.9382 22.6069,19.6049 23.5,23.5C 20.3864,22.9087 17.8864,21.242 16,18.5C 15.5304,17.4232 15.6971,16.4232 16.5,15.5 Z"/></g>
<g><path style="opacity:1" fill="#2ac800" d="M 80.5,15.5 C 82.6859,15.5106 83.5192,16.5106 83,18.5C 81.1136,21.242 78.6136,22.9087 75.5,23.5C 75.3505,22.448 75.5172,21.448 76,20.5C 77.7073,18.9625 79.2073,17.2959 80.5,15.5 Z"/></g>
<g><path style="opacity:1" fill="#31cb00" d="M 43.5,18.5 C 66.2173,16.7183 76.7173,27.0516 75,49.5C 72.9406,55.9575 69.6073,61.6241 65,66.5C 62.6274,72.6171 61.294,78.9504 61,85.5C 60.6541,87.8477 59.4875,89.6811 57.5,91C 52.1667,91.6667 46.8333,91.6667 41.5,91C 40.6667,90.1667 39.8333,89.3333 39,88.5C 38.1281,80.9964 36.4614,73.663 34,66.5C 25.5233,58.2136 22.19,48.2136 24,36.5C 26.8669,26.463 33.3669,20.463 43.5,18.5 Z M 43.5,22.5 C 68.8394,22.5245 76.6727,34.1912 67,57.5C 64.2105,61.1258 60.7105,63.7925 56.5,65.5C 55.5078,61.2172 55.1744,56.8839 55.5,52.5C 59.7202,52.5729 62.0536,50.5729 62.5,46.5C 60.2776,46.178 58.4443,46.8446 57,48.5C 56.196,47.1955 55.0293,46.5288 53.5,46.5C 50.8333,47.8333 48.1667,47.8333 45.5,46.5C 43.9707,46.5288 42.804,47.1955 42,48.5C 40.5557,46.8446 38.7224,46.178 36.5,46.5C 36.9464,50.5729 39.2798,52.5729 43.5,52.5C 43.8256,56.8839 43.4922,61.2172 42.5,65.5C 27.9484,57.3453 24.1151,45.6786 31,30.5C 34.6715,26.9227 38.8381,24.2561 43.5,22.5 Z M 48.5,52.5 C 49.1667,52.5 49.8333,52.5 50.5,52.5C 51.7999,57.4001 51.7999,62.4001 50.5,67.5C 49.8333,67.5 49.1667,67.5 48.5,67.5C 47.2001,62.4001 47.2001,57.4001 48.5,52.5 Z M 58.5,75.5 C 52.5,76.8333 46.5,76.8333 40.5,75.5C 40.3354,73.1732 39.6687,71.0065 38.5,69C 38.8333,68.8333 39.1667,68.6667 39.5,68.5C 46.1667,71.1667 52.8333,71.1667 59.5,68.5C 59.8333,68.6667 60.1667,68.8333 60.5,69C 59.3313,71.0065 58.6646,73.1732 58.5,75.5 Z M 41.5,80.5 C 46.8746,80.1718 52.2079,80.5052 57.5,81.5C 54.8333,81.8333 52.1667,82.1667 49.5,82.5C 46.4098,82.4783 43.7432,81.8117 41.5,80.5 Z"/></g>
<g><path style="opacity:1" fill="#36ca00" d="M 47.5,23.5 C 48.4584,23.9528 49.2917,24.6195 50,25.5C 51.6995,24.5939 53.5328,24.2606 55.5,24.5C 55.5,25.5 55.5,26.5 55.5,27.5C 39.1703,25.8297 31.8369,33.1631 33.5,49.5C 32.1667,49.5 30.8333,49.5 29.5,49.5C 27.1504,34.8249 33.1504,26.1583 47.5,23.5 Z"/></g>
<g><path style="opacity:0.753" fill="#52b700" d="M 21.5,48.5 C 9.5,49.1667 9.5,49.8333 21.5,50.5C 18.3752,51.4794 15.0419,51.8128 11.5,51.5C 11.5,50.1667 11.5,48.8333 11.5,47.5C 15.0419,47.1872 18.3752,47.5206 21.5,48.5 Z"/></g>
<g><path style="opacity:1" fill="#26d100" d="M 21.5,48.5 C 22.8333,49.1667 22.8333,49.8333 21.5,50.5C 9.5,49.8333 9.5,49.1667 21.5,48.5 Z"/></g>
<g><path style="opacity:1" fill="#25d100" d="M 77.5,48.5 C 89.5,49.1667 89.5,49.8333 77.5,50.5C 76.1667,49.8333 76.1667,49.1667 77.5,48.5 Z"/></g>
<g><path style="opacity:0.753" fill="#53b700" d="M 77.5,48.5 C 80.6248,47.5206 83.9581,47.1872 87.5,47.5C 87.5,48.8333 87.5,50.1667 87.5,51.5C 83.9581,51.8128 80.6248,51.4794 77.5,50.5C 89.5,49.8333 89.5,49.1667 77.5,48.5 Z"/></g>
<g><path style="opacity:0.439" fill="#71b100" d="M 48.5,52.5 C 47.2001,57.4001 47.2001,62.4001 48.5,67.5C 47.1883,65.2568 46.5217,62.5902 46.5,59.5C 46.8333,56.8333 47.1667,54.1667 47.5,51.5C 48.1067,51.6236 48.44,51.9569 48.5,52.5 Z"/></g>
<g><path style="opacity:0.439" fill="#71b100" d="M 50.5,52.5 C 50.56,51.9569 50.8933,51.6236 51.5,51.5C 51.8333,54.1667 52.1667,56.8333 52.5,59.5C 52.4783,62.5902 51.8117,65.2568 50.5,67.5C 51.7999,62.4001 51.7999,57.4001 50.5,52.5 Z"/></g>
<g><path style="opacity:1" fill="#31c800" d="M 26.5,69.5 C 28.6859,69.5106 29.5192,70.5106 29,72.5C 27.1136,75.242 24.6136,76.9087 21.5,77.5C 21.3505,76.448 21.5172,75.448 22,74.5C 23.7073,72.9625 25.2073,71.2959 26.5,69.5 Z"/></g>
<g><path style="opacity:1" fill="#31c800" d="M 70.5,69.5 C 74.2736,70.9382 76.6069,73.6049 77.5,77.5C 74.3864,76.9087 71.8864,75.242 70,72.5C 69.5304,71.4232 69.6971,70.4232 70.5,69.5 Z"/></g>
<g><path style="opacity:0.439" fill="#6fb100" d="M 40.5,75.5 C 46.5,76.8333 52.5,76.8333 58.5,75.5C 55.9134,76.8164 52.9134,77.483 49.5,77.5C 46.0866,77.483 43.0866,76.8164 40.5,75.5 Z"/></g>
<g><path style="opacity:0.439" fill="#70b100" d="M 55.5,87.5 C 51.5,86.1667 47.5,86.1667 43.5,87.5C 42.7109,87.2172 42.0442,86.7172 41.5,86C 46.8333,85.3333 52.1667,85.3333 57.5,86C 56.9558,86.7172 56.2891,87.2172 55.5,87.5 Z"/></g>
</svg>
